# xmcd
#
# Track frame offsets:
#	150
#	17477
#	39040
#	55136
#	72724
#	89428
#	103995
#	127121
#	144854
#	163041
#	185516
#	198406
#	213579
#	232740
#
# Disc length: 3317 seconds
#
# Revision: 0
# Processed by: cddbd v1.5.2PL0 Copyright (c) Steve Scherf et al.
# Submitted via: EasyCDDAExtractor 16.0.6.1
#
DISCID=c30cf30e
DTITLE=Συλλογικός δίσκος - Τα έντεχνα 3
DYEAR=2008
DGENRE=Έντεχνη
TTITLE0=Μαυρουδής Νότης - Πρωϊνό τσιγάρο [Ν. Μαυρουδής-Άλκης Αλκαίος]
TTITLE1=Γλυκερία - Θάλασσά μου εσύ [Διον. Τσακνής-Βασ. Μπουντούρης]
TTITLE2=Μακεδόνας Κώστας - Βήμα-βήμα [Θύμιος Παπαδόπουλος-Νίκος Μωραΐτης]
TTITLE3=Ανδρέου Γιώργος - Άγιος ο έρωτας [Γιώργος Ανδρέου-Διον. Καρατζάς]
TTITLE4=Ασλανίδου Μελίνα - Πάει καιρός [Θοδ. Παπαδόπουλος-Σμάρω Παπαδοπούλου]
TTITLE5=Τανάγρη Μελίνα - Βαλσάκι [Μελίνα Τανάγρη]
TTITLE6=Τσακνής Διονύσης - Νοέμβρης '91 (17 χρόνια μετά)[Διονύσης Τσακνής]
TTITLE7=Φάμελλος Μανώλης-Σοφιανοπούλου Λ. - Η ζωή μου τρέχει [Μαν. Φάμελλος]
TTITLE8=Λογαρίδης Σταύρος - Μιά βουτιά στην αγάπη [Κώστας Λειβαδάς]
TTITLE9=Τερζής Πασχάλης - Τζιβαέρι [παραδοσιακό]
TTITLE10=Μητσιάς Μανώλης - Νύχτα κλείνοντ' οι δουλειές [Ν. Μαυρουδής-Σωτηρία Μ
TTITLE10=παβέλου]
TTITLE11=Τσαλιγοπούλου Ελένη - Άγιο τσιπουράκι [Κώστας Καλδάρας]
TTITLE12=Άνευ ερμηνευτού - Ενθύμιον Φλωρίνης [Χρ. Νικολόπουλος-Μπάντα Φλώρινας
TTITLE12=]
TTITLE13=Αθηναϊκή κομπανία - Άναψε το τσιγάρο [Γερ. Κλουβάτος-Χαρ. Βασιλειάδης
TTITLE13=]
EXTD=
EXTT0=
EXTT1=
EXTT2=
EXTT3=
EXTT4=
EXTT5=
EXTT6=
EXTT7=
EXTT8=
EXTT9=
EXTT10=
EXTT11=
EXTT12=
EXTT13=
PLAYORDER=
